<svg id="Laag_1" data-name="Laag 1" xmlns="http://www.w3.org/2000/svg" viewBox="0 0 1920 333"><defs><style>.cls-1{fill:#594864;}.cls-2{fill:#be567c;}</style></defs><title>SOWISO_Logo</title><path class="cls-1" d="M618.35,57.26c8.26,9.39,12.38,16.52,12.38,25.15,0,12.39-9.38,22.15-23.27,22.15-8.63,0-16.89-4.5-22.15-10.51-9.76-9.76-17.64-14.26-31.53-14.26-20.65,0-31.53,11.63-31.53,25.9,0,9.76,4.87,20.27,26.27,28.91l12.39,4.5c61.57,23.28,83.71,45.8,83.71,80.71,0,53.31-52.93,79.21-96.47,79.21-28.53,0-58.57-10.89-78.09-32.28-4.12-4.88-12-15-12-27.78,0-11.64,7.51-23.65,22.9-23.65,12.39,0,20.65,7.88,26.65,15.76,13.14,14.64,27.78,18.78,40.17,18.78,16.52,0,39-6.39,39-30,0-16.89-10.51-25.52-39-36.79l-13.51-5.25c-39.05-15-68.7-33.42-68.7-72.83,0-45.8,38.29-73.95,86-73.95C583.81,31,602.58,42.25,618.35,57.26Z"/><path class="cls-1" d="M938.18,165c0,79.21-64.19,134-131.76,134-67.95,0-131.77-54.81-131.77-134S738.47,31,806.42,31C874,31,938.18,85.79,938.18,165ZM734,165c0,48.81,31.9,80.71,72.45,80.71,40.16,0,72.45-31.9,72.45-80.71s-31.54-80.71-72.45-80.71C765.87,84.29,734,116.2,734,165Z"/><path class="cls-1" d="M1304.94,58c0,5.64-2.25,11.64-3.76,16.15l-61.94,203.46c-4.5,14.27-15.76,21-30,21s-24.4-6.75-29.66-21l-52.93-146-53.68,146c-5.26,14.27-15.39,21-29.66,21s-25.52-6.75-30-21L951.31,74.16c-1.5-4.51-3.75-10.51-3.75-16.15,0-13.88,12-25.52,27.4-25.52,12.39,0,24,7.13,27,18l43.54,158.79,55.56-158.42c5.26-13.89,14.64-18.39,24.78-18.39s20.27,4.5,25.53,18.39L1207,209.3,1250.5,50.51c3-10.89,14.64-18,27-18C1292.92,32.49,1304.94,44.13,1304.94,58Z"/><path class="cls-1" d="M1398,60.64V269.37c0,15.38-13.14,28.9-28.53,28.9-15.76,0-28.91-13.52-28.91-28.9V60.64c0-15.39,13.15-28.9,28.91-28.9C1384.88,31.74,1398,45.25,1398,60.64Z"/><path class="cls-1" d="M1595.86,57.26c8.25,9.39,12.38,16.52,12.38,25.15,0,12.39-9.38,22.15-23.27,22.15-8.64,0-16.89-4.5-22.15-10.51-9.76-9.76-17.64-14.26-31.53-14.26-20.65,0-31.54,11.63-31.54,25.9,0,9.76,4.88,20.27,26.28,28.91l12.39,4.5c61.56,23.28,83.71,45.8,83.71,80.71,0,53.31-52.93,79.21-96.47,79.21-28.54,0-58.57-10.89-78.09-32.28-4.13-4.88-12-15-12-27.78,0-11.64,7.51-23.65,22.9-23.65,12.38,0,20.64,7.88,26.65,15.76,13.14,14.64,27.78,18.78,40.17,18.78,16.52,0,39-6.39,39-30,0-16.89-10.51-25.52-39-36.79l-13.51-5.25c-39-15-68.7-33.42-68.7-72.83,0-45.8,38.29-73.95,86-73.95C1561.32,31,1580.09,42.25,1595.86,57.26Z"/><path class="cls-1" d="M1915.69,165c0,79.21-64.19,134-131.76,134-68,0-131.77-54.81-131.77-134S1716,31,1783.93,31C1851.5,31,1915.69,85.79,1915.69,165Zm-204.22,0c0,48.81,31.91,80.71,72.46,80.71,40.16,0,72.45-31.9,72.45-80.71s-31.53-80.71-72.45-80.71C1743.38,84.29,1711.47,116.2,1711.47,165Z"/><circle class="cls-1" cx="283" cy="165" r="134.02"/><circle class="cls-2" cx="138.02" cy="165" r="134.02"/></svg>